<?xml version="1.0" encoding="UTF-8"?>
<!DOCTYPE svg PUBLIC "-//W3C//DTD SVG 1.1//EN" "http://www.w3.org/Graphics/SVG/1.1/DTD/svg11.dtd">
<svg xmlns="http://www.w3.org/2000/svg" version="1.1" width="371px" height="389px" style="shape-rendering:geometricPrecision; text-rendering:geometricPrecision; image-rendering:optimizeQuality; fill-rule:evenodd; clip-rule:evenodd" xmlns:xlink="http://www.w3.org/1999/xlink">
<g><path style="opacity:0.714" fill="#b07442" d="M 115.5,10.5 C 112.833,10.5 110.167,10.5 107.5,10.5C 107.167,10.5 106.833,10.5 106.5,10.5C 97.7794,10.2246 89.1127,10.5579 80.5,11.5C 80.6107,10.8826 80.944,10.3826 81.5,10C 93.0076,9.17408 104.341,9.34075 115.5,10.5 Z"/></g>
<g><path style="opacity:1" fill="#fea660" d="M 106.5,10.5 C 106.5,18.8333 106.5,27.1667 106.5,35.5C 105.674,40.3165 105.174,45.3165 105,50.5C 103.888,45.5098 101.055,43.8431 96.5,45.5C 96.1602,42.3236 94.4936,40.1569 91.5,39C 91.9574,38.586 92.2907,38.086 92.5,37.5C 91.5161,35.5201 90.1827,33.8534 88.5,32.5C 89.4709,31.0379 89.1376,29.7046 87.5,28.5C 86.3112,27.5713 84.9778,27.238 83.5,27.5C 82.0342,22.3177 81.0342,16.9844 80.5,11.5C 89.1127,10.5579 97.7794,10.2246 106.5,10.5 Z"/></g>
<g><path style="opacity:1" fill="#ca4687" d="M 251.5,10.5 C 261.992,9.34121 272.659,9.17455 283.5,10C 285.913,13.2134 286.913,16.8801 286.5,21C 285.79,28.1508 285.457,35.3174 285.5,42.5C 284.999,40.754 284.332,39.754 283.5,39.5C 282.357,39.0919 281.357,38.4252 280.5,37.5C 277.881,32.6815 275.714,27.6815 274,22.5C 270.473,19.6396 267.306,16.4729 264.5,13C 264.833,12.6667 265.167,12.3333 265.5,12C 263.75,10.6814 261.75,10.1814 259.5,10.5C 256.833,10.5 254.167,10.5 251.5,10.5 Z"/></g>
<g><path style="opacity:1" fill="#fed685" d="M 107.5,10.5 C 110.167,10.5 112.833,10.5 115.5,10.5C 116.167,10.5 116.5,10.8333 116.5,11.5C 116.5,43.5 116.5,75.5 116.5,107.5C 115.678,93.6612 115.012,79.6612 114.5,65.5C 111.724,65.9111 111.057,65.0777 112.5,63C 110.968,60.039 110.134,56.8723 110,53.5C 109.333,52.1667 108.667,52.1667 108,53.5C 107.5,39.1705 107.333,24.8372 107.5,10.5 Z"/></g>
<g><path style="opacity:1" fill="#e4498c" d="M 259.5,10.5 C 261.75,10.1814 263.75,10.6814 265.5,12C 265.167,12.3333 264.833,12.6667 264.5,13C 267.306,16.4729 270.473,19.6396 274,22.5C 275.714,27.6815 277.881,32.6815 280.5,37.5C 281.357,38.4252 282.357,39.0919 283.5,39.5C 283.813,42.2469 283.48,44.9135 282.5,47.5C 281.5,46.5 280.5,45.5 279.5,44.5C 274.71,36.9066 270.21,29.2399 266,21.5C 263.843,18.3443 261.343,15.511 258.5,13C 259.252,12.3292 259.586,11.4959 259.5,10.5 Z"/></g>
<g><path style="opacity:1" fill="#ef4681" d="M 251.5,10.5 C 254.167,10.5 256.833,10.5 259.5,10.5C 259.586,11.4959 259.252,12.3292 258.5,13C 261.343,15.511 263.843,18.3443 266,21.5C 270.21,29.2399 274.71,36.9066 279.5,44.5C 280.5,45.5 281.5,46.5 282.5,47.5C 283.48,44.9135 283.813,42.2469 283.5,39.5C 284.332,39.754 284.999,40.754 285.5,42.5C 285.669,48.3471 285.669,54.0137 285.5,59.5C 285.167,59.5 284.833,59.5 284.5,59.5C 284.665,56.1501 284.498,52.8168 284,49.5C 283.51,50.7932 283.343,52.1266 283.5,53.5C 282.178,53.33 281.011,53.6634 280,54.5C 278.951,52.8934 277.451,52.2267 275.5,52.5C 274.014,47.2087 270.848,43.2087 266,40.5C 264.844,35.1904 262.344,30.6904 258.5,27C 258.833,26.6667 259.167,26.3333 259.5,26C 257.798,23.7646 256.798,21.2646 256.5,18.5C 252.441,18.0399 250.441,15.7065 250.5,11.5C 250.5,10.8333 250.833,10.5 251.5,10.5 Z"/></g>
<g><path style="opacity:1" fill="#fe9b5b" d="M 80.5,11.5 C 81.0342,16.9844 82.0342,22.3177 83.5,27.5C 84.9778,27.238 86.3112,27.5713 87.5,28.5C 89.1376,29.7046 89.4709,31.0379 88.5,32.5C 90.1827,33.8534 91.5161,35.5201 92.5,37.5C 92.2907,38.086 91.9574,38.586 91.5,39C 94.4936,40.1569 96.1602,42.3236 96.5,45.5C 101.055,43.8431 103.888,45.5098 105,50.5C 105.174,45.3165 105.674,40.3165 106.5,35.5C 106.5,46.1667 106.5,56.8333 106.5,67.5C 106.5,74.5 106.5,81.5 106.5,88.5C 103.956,91.3065 102.956,90.6399 103.5,86.5C 101.396,86.7989 99.396,86.4656 97.5,85.5C 96.9234,83.4501 95.5901,82.4501 93.5,82.5C 91.5454,79.6817 89.7121,76.6817 88,73.5C 86.5905,72.2125 85.0905,71.0458 83.5,70C 83.9574,69.586 84.2907,69.086 84.5,68.5C 83.4688,67.2997 82.6355,65.9663 82,64.5C 81.8195,67.6946 81.3195,70.6946 80.5,73.5C 79.6499,53.5128 79.3166,33.5128 79.5,13.5C 79.3284,12.5084 79.6618,11.8417 80.5,11.5 Z"/></g>
<g><path style="opacity:1" fill="#f7456a" d="M 284.5,59.5 C 284.833,59.5 285.167,59.5 285.5,59.5C 286.657,62.0259 286.657,64.6926 285.5,67.5C 285.5,72.8333 285.5,78.1667 285.5,83.5C 283.034,85.3637 280.367,86.0303 277.5,85.5C 269.278,75.5331 261.945,65.0331 255.5,54C 255.957,53.586 256.291,53.086 256.5,52.5C 255.5,51.5 254.5,50.5 253.5,49.5C 252.473,50.7914 251.473,50.7914 250.5,49.5C 250.5,46.8333 250.5,44.1667 250.5,41.5C 250.334,37.4862 250.501,33.4862 251,29.5C 252.828,31.6618 254.661,33.8285 256.5,36C 256.275,39.5066 257.942,42.1732 261.5,44C 260.549,44.7175 260.383,45.5509 261,46.5C 263.386,47.7633 265.219,49.5967 266.5,52C 266.167,52.3333 265.833,52.6667 265.5,53C 270.079,58.8939 274.745,64.7273 279.5,70.5C 280.85,69.0499 282.516,68.3832 284.5,68.5C 284.5,65.5 284.5,62.5 284.5,59.5 Z"/></g>
<g><path style="opacity:1" fill="#f64475" d="M 250.5,11.5 C 250.441,15.7065 252.441,18.0399 256.5,18.5C 256.798,21.2646 257.798,23.7646 259.5,26C 259.167,26.3333 258.833,26.6667 258.5,27C 262.344,30.6904 264.844,35.1904 266,40.5C 270.848,43.2087 274.014,47.2087 275.5,52.5C 277.451,52.2267 278.951,52.8934 280,54.5C 281.011,53.6634 282.178,53.33 283.5,53.5C 283.343,52.1266 283.51,50.7932 284,49.5C 284.498,52.8168 284.665,56.1501 284.5,59.5C 284.5,62.5 284.5,65.5 284.5,68.5C 282.516,68.3832 280.85,69.0499 279.5,70.5C 274.745,64.7273 270.079,58.8939 265.5,53C 265.833,52.6667 266.167,52.3333 266.5,52C 265.219,49.5967 263.386,47.7633 261,46.5C 260.383,45.5509 260.549,44.7175 261.5,44C 257.942,42.1732 256.275,39.5066 256.5,36C 254.661,33.8285 252.828,31.6618 251,29.5C 250.501,33.4862 250.334,37.4862 250.5,41.5C 249.507,32.6822 249.173,23.6822 249.5,14.5C 249.263,13.209 249.596,12.209 250.5,11.5 Z"/></g>
<g><path style="opacity:1" fill="#fe4c5c" d="M 250.5,49.5 C 251.473,50.7914 252.473,50.7914 253.5,49.5C 254.5,50.5 255.5,51.5 256.5,52.5C 256.291,53.086 255.957,53.586 255.5,54C 261.945,65.0331 269.278,75.5331 277.5,85.5C 280.367,86.0303 283.034,85.3637 285.5,83.5C 285.822,89.358 285.489,95.0247 284.5,100.5C 283.154,96.5714 282.32,96.9048 282,101.5C 278.784,100.538 275.618,99.3717 272.5,98C 273.331,94.9784 271.998,93.4784 268.5,93.5C 268.756,89.8362 267.423,87.8362 264.5,87.5C 264.931,86.7065 265.265,85.8732 265.5,85C 263.799,83.1397 262.799,80.973 262.5,78.5C 261.167,78.5 259.833,78.5 258.5,78.5C 258.327,75.8205 257.327,73.4872 255.5,71.5C 256.504,67.3465 255.337,66.6798 252,69.5C 251.768,68.2625 251.268,67.2625 250.5,66.5C 250.5,60.8333 250.5,55.1667 250.5,49.5 Z"/></g>
<g><path style="opacity:1" fill="#fe5355" d="M 250.5,66.5 C 251.268,67.2625 251.768,68.2625 252,69.5C 255.337,66.6798 256.504,67.3465 255.5,71.5C 257.327,73.4872 258.327,75.8205 258.5,78.5C 259.833,78.5 261.167,78.5 262.5,78.5C 262.799,80.973 263.799,83.1397 265.5,85C 265.265,85.8732 264.931,86.7065 264.5,87.5C 267.423,87.8362 268.756,89.8362 268.5,93.5C 271.998,93.4784 273.331,94.9784 272.5,98C 275.618,99.3717 278.784,100.538 282,101.5C 282.32,96.9048 283.154,96.5714 284.5,100.5C 284.5,103.5 284.5,106.5 284.5,109.5C 283.073,111.148 282.24,113.148 282,115.5C 280.333,113.833 278.667,112.167 277,110.5C 276.586,110.957 276.086,111.291 275.5,111.5C 274.702,109.922 274.202,108.256 274,106.5C 273.667,106.833 273.333,107.167 273,107.5C 270.093,102.257 266.427,97.5905 262,93.5C 261.667,93.8333 261.333,94.1667 261,94.5C 258.361,92.5272 256.027,90.1939 254,87.5C 252.16,88.8331 251.66,88.6665 252.5,87C 251.891,85.0517 251.224,83.2184 250.5,81.5C 250.5,76.5 250.5,71.5 250.5,66.5 Z"/></g>
<g><path style="opacity:1" fill="#fec882" d="M 106.5,10.5 C 106.833,10.5 107.167,10.5 107.5,10.5C 107.333,24.8372 107.5,39.1705 108,53.5C 108.667,52.1667 109.333,52.1667 110,53.5C 110.134,56.8723 110.968,60.039 112.5,63C 111.057,65.0777 111.724,65.9111 114.5,65.5C 115.012,79.6612 115.678,93.6612 116.5,107.5C 116.5,122.5 116.5,137.5 116.5,152.5C 115.669,140.007 115.169,127.34 115,114.5C 113.989,113.663 112.822,113.33 111.5,113.5C 111.662,111.473 111.495,109.473 111,107.5C 110.586,107.043 110.086,106.709 109.5,106.5C 108.682,109.107 108.182,111.774 108,114.5C 107.831,98.6613 107.331,82.9946 106.5,67.5C 106.5,56.8333 106.5,46.1667 106.5,35.5C 106.5,27.1667 106.5,18.8333 106.5,10.5 Z"/></g>
<g><path style="opacity:1" fill="#fe8e56" d="M 106.5,88.5 C 106.5,93.5 106.5,98.5 106.5,103.5C 105.927,110.426 105.094,117.426 104,124.5C 103.683,122.699 103.016,122.366 102,123.5C 100.581,122.54 99.0806,121.707 97.5,121C 96.1667,120.333 96.1667,119.667 97.5,119C 94.8598,118.453 92.5265,116.787 90.5,114C 90.8333,113.667 91.1667,113.333 91.5,113C 87.5469,108.707 84.3802,103.874 82,98.5C 81.6667,99.8333 81.3333,101.167 81,102.5C 80.5002,92.8391 80.3335,83.1724 80.5,73.5C 81.3195,70.6946 81.8195,67.6946 82,64.5C 82.6355,65.9663 83.4688,67.2997 84.5,68.5C 84.2907,69.086 83.9574,69.586 83.5,70C 85.0905,71.0458 86.5905,72.2125 88,73.5C 89.7121,76.6817 91.5454,79.6817 93.5,82.5C 95.5901,82.4501 96.9234,83.4501 97.5,85.5C 99.396,86.4656 101.396,86.7989 103.5,86.5C 102.956,90.6399 103.956,91.3065 106.5,88.5 Z"/></g>
<g><path style="opacity:1" fill="#943437" d="M 249.5,14.5 C 249.173,23.6822 249.507,32.6822 250.5,41.5C 250.5,44.1667 250.5,46.8333 250.5,49.5C 250.5,55.1667 250.5,60.8333 250.5,66.5C 250.5,71.5 250.5,76.5 250.5,81.5C 250.5,88.5 250.5,95.5 250.5,102.5C 250.5,108.167 250.5,113.833 250.5,119.5C 250.468,124.391 249.801,129.057 248.5,133.5C 248.358,93.6833 248.691,54.0166 249.5,14.5 Z"/></g>
<g><path style="opacity:1" fill="#fe5e52" d="M 250.5,81.5 C 251.224,83.2184 251.891,85.0517 252.5,87C 251.66,88.6665 252.16,88.8331 254,87.5C 256.027,90.1939 258.361,92.5272 261,94.5C 261.333,94.1667 261.667,93.8333 262,93.5C 266.427,97.5905 270.093,102.257 273,107.5C 273.333,107.167 273.667,106.833 274,106.5C 274.202,108.256 274.702,109.922 275.5,111.5C 276.086,111.291 276.586,110.957 277,110.5C 278.667,112.167 280.333,113.833 282,115.5C 282.24,113.148 283.073,111.148 284.5,109.5C 284.5,117.5 284.5,125.5 284.5,133.5C 284.167,133.5 283.833,133.5 283.5,133.5C 282.21,132.942 281.377,131.942 281,130.5C 279.092,131.079 277.425,131.079 276,130.5C 274.626,128.253 273.126,126.087 271.5,124C 271.645,123.228 271.978,122.561 272.5,122C 270.5,121 268.5,120 266.5,119C 266.833,118.667 267.167,118.333 267.5,118C 265.939,117.682 264.772,116.849 264,115.5C 262.135,114.919 260.469,115.586 259,117.5C 257.233,115.836 257.733,114.669 260.5,114C 259.167,113.667 257.833,113.333 256.5,113C 255.667,110.833 254.167,109.333 252,108.5C 251.809,106.292 251.309,104.292 250.5,102.5C 250.5,95.5 250.5,88.5 250.5,81.5 Z"/></g>
<g><path style="opacity:1" fill="#fe6750" d="M 250.5,102.5 C 251.309,104.292 251.809,106.292 252,108.5C 254.167,109.333 255.667,110.833 256.5,113C 257.833,113.333 259.167,113.667 260.5,114C 257.733,114.669 257.233,115.836 259,117.5C 260.469,115.586 262.135,114.919 264,115.5C 264.772,116.849 265.939,117.682 267.5,118C 267.167,118.333 266.833,118.667 266.5,119C 268.5,120 270.5,121 272.5,122C 271.978,122.561 271.645,123.228 271.5,124C 273.126,126.087 274.626,128.253 276,130.5C 277.425,131.079 279.092,131.079 281,130.5C 281.377,131.942 282.21,132.942 283.5,133.5C 283.824,137.555 283.491,141.555 282.5,145.5C 281.833,145.833 281.167,146.167 280.5,146.5C 277.818,143.032 275.151,139.032 272.5,134.5C 269.672,132.252 266.672,130.252 263.5,128.5C 262.614,127.675 262.281,126.675 262.5,125.5C 259.138,125.93 256.305,124.93 254,122.5C 253.667,122.833 253.333,123.167 253,123.5C 252.878,121.563 252.045,120.23 250.5,119.5C 250.5,113.833 250.5,108.167 250.5,102.5 Z"/></g>
<g><path style="opacity:1" fill="#f3c481" d="M 208.5,119.5 C 204.486,119.334 200.486,119.501 196.5,120C 197.328,120.915 198.328,121.581 199.5,122C 197.266,122.969 195.266,124.302 193.5,126C 196.355,128.237 199.689,130.57 203.5,133C 205.636,137.129 208.469,140.629 212,143.5C 212.833,145.167 213.667,146.833 214.5,148.5C 211.222,149.021 207.889,149.187 204.5,149C 205.737,149.232 206.737,149.732 207.5,150.5C 194.44,148.943 181.44,149.276 168.5,151.5C 168.47,150.503 168.97,149.836 170,149.5C 174.073,148.126 178.24,147.126 182.5,146.5C 183.932,146.267 184.432,145.6 184,144.5C 176.476,140.831 168.643,137.831 160.5,135.5C 159.855,133.568 158.521,132.401 156.5,132C 157.743,130.846 158.743,129.512 159.5,128C 156.028,128.098 152.695,128.932 149.5,130.5C 152.956,127.933 156.623,125.599 160.5,123.5C 163.152,123.59 165.485,122.924 167.5,121.5C 181.026,117.432 194.693,116.766 208.5,119.5 Z"/></g>
<g><path style="opacity:0.773" fill="#8f6f4a" d="M 167.5,121.5 C 165.485,122.924 163.152,123.59 160.5,123.5C 162.515,122.076 164.848,121.41 167.5,121.5 Z"/></g>
<g><path style="opacity:1" fill="#c7a86a" d="M 218.5,121.5 C 223.165,122.057 227.498,123.39 231.5,125.5C 229.208,125.244 227.041,125.577 225,126.5C 223.686,125.687 222.519,124.687 221.5,123.5C 219.568,124.52 217.568,124.687 215.5,124C 217.119,123.764 218.119,122.931 218.5,121.5 Z"/></g>
<g><path style="opacity:1" fill="#fcb97e" d="M 106.5,67.5 C 107.331,82.9946 107.831,98.6613 108,114.5C 108.182,111.774 108.682,109.107 109.5,106.5C 110.086,106.709 110.586,107.043 111,107.5C 111.495,109.473 111.662,111.473 111.5,113.5C 112.822,113.33 113.989,113.663 115,114.5C 115.169,127.34 115.669,140.007 116.5,152.5C 118.973,152.912 120.306,151.912 120.5,149.5C 124.469,148.197 128.469,148.197 132.5,149.5C 133.04,148.252 133.707,147.085 134.5,146C 136.78,145.297 138.78,144.131 140.5,142.5C 141.731,141.349 141.731,140.183 140.5,139C 141.549,138.508 142.549,138.674 143.5,139.5C 144.83,137.653 144.497,136.153 142.5,135C 143.381,134.292 144.047,133.458 144.5,132.5C 147.045,132.151 149.045,132.984 150.5,135C 149.692,135.308 149.025,135.808 148.5,136.5C 149.248,138.332 150.248,139.999 151.5,141.5C 154.469,142.977 157.303,144.643 160,146.5C 162.333,146.5 164.667,146.5 167,146.5C 167.5,147 168,147.5 168.5,148C 161.869,149.516 161.869,150.683 168.5,151.5C 162.429,153.417 156.429,155.75 150.5,158.5C 149.262,157.588 147.928,157.421 146.5,158C 145.011,159.468 143.677,160.968 142.5,162.5C 141.761,162.631 141.094,162.464 140.5,162C 141.5,160.333 142.5,158.667 143.5,157C 139.754,156.744 136.087,157.244 132.5,158.5C 132.657,159.873 132.49,161.207 132,162.5C 131.086,161.346 130.253,161.513 129.5,163C 129.833,163.333 130.167,163.667 130.5,164C 128.5,164.667 126.5,164.667 124.5,164C 125.711,163.107 125.711,162.274 124.5,161.5C 123.808,162.025 123.308,162.692 123,163.5C 117.053,161.718 113.887,157.718 113.5,151.5C 114.606,147.223 114.772,142.89 114,138.5C 113.632,139.91 112.799,140.91 111.5,141.5C 112.061,139.934 111.394,138.601 109.5,137.5C 108.5,175.494 108.167,213.494 108.5,251.5C 107.761,215.341 107.095,170.675 106.5,117.5C 106.5,112.833 106.5,108.167 106.5,103.5C 106.5,98.5 106.5,93.5 106.5,88.5C 106.5,81.5 106.5,74.5 106.5,67.5 Z"/></g>
<g><path style="opacity:1" fill="#bf9463" d="M 160.5,123.5 C 156.623,125.599 152.956,127.933 149.5,130.5C 147.435,130.517 145.435,130.85 143.5,131.5C 148.462,127.521 154.129,124.854 160.5,123.5 Z"/></g>
<g><path style="opacity:1" fill="#fec481" d="M 168.5,151.5 C 161.869,150.683 161.869,149.516 168.5,148C 168,147.5 167.5,147 167,146.5C 164.667,146.5 162.333,146.5 160,146.5C 157.303,144.643 154.469,142.977 151.5,141.5C 150.248,139.999 149.248,138.332 148.5,136.5C 149.025,135.808 149.692,135.308 150.5,135C 149.045,132.984 147.045,132.151 144.5,132.5C 143.833,132.5 143.5,132.167 143.5,131.5C 145.435,130.85 147.435,130.517 149.5,130.5C 152.695,128.932 156.028,128.098 159.5,128C 158.743,129.512 157.743,130.846 156.5,132C 158.521,132.401 159.855,133.568 160.5,135.5C 168.643,137.831 176.476,140.831 184,144.5C 184.432,145.6 183.932,146.267 182.5,146.5C 178.24,147.126 174.073,148.126 170,149.5C 168.97,149.836 168.47,150.503 168.5,151.5 Z"/></g>
<g><path style="opacity:1" fill="#fdd888" d="M 208.5,119.5 C 212.078,119.549 215.411,120.215 218.5,121.5C 218.119,122.931 217.119,123.764 215.5,124C 217.568,124.687 219.568,124.52 221.5,123.5C 222.519,124.687 223.686,125.687 225,126.5C 227.041,125.577 229.208,125.244 231.5,125.5C 237.564,127.366 243.231,130.033 248.5,133.5C 265.331,144.32 277.331,158.987 284.5,177.5C 284.5,177.833 284.5,178.167 284.5,178.5C 284.833,203.509 284.5,228.509 283.5,253.5C 282.482,254.193 281.482,254.859 280.5,255.5C 282.212,253.104 282.712,250.438 282,247.5C 281.751,248.624 281.251,249.624 280.5,250.5C 277.903,247.303 276.403,243.637 276,239.5C 275.439,240.022 274.772,240.355 274,240.5C 269.857,237.922 266.357,234.589 263.5,230.5C 260.55,229.034 257.883,227.2 255.5,225C 254.299,224.097 253.465,222.931 253,221.5C 251.575,228.385 251.075,235.385 251.5,242.5C 251.819,247.363 251.486,252.03 250.5,256.5C 250.667,233.831 250.5,211.164 250,188.5C 249.79,186.942 249.29,185.609 248.5,184.5C 247.463,183.07 246.796,181.403 246.5,179.5C 246.715,177.821 246.048,176.821 244.5,176.5C 235.801,162.651 223.468,153.985 207.5,150.5C 206.737,149.732 205.737,149.232 204.5,149C 207.889,149.187 211.222,149.021 214.5,148.5C 213.667,146.833 212.833,145.167 212,143.5C 208.469,140.629 205.636,137.129 203.5,133C 199.689,130.57 196.355,128.237 193.5,126C 195.266,124.302 197.266,122.969 199.5,122C 198.328,121.581 197.328,120.915 196.5,120C 200.486,119.501 204.486,119.334 208.5,119.5 Z"/></g>
<g><path style="opacity:1" fill="#fd7151" d="M 250.5,119.5 C 252.045,120.23 252.878,121.563 253,123.5C 253.333,123.167 253.667,122.833 254,122.5C 256.305,124.93 259.138,125.93 262.5,125.5C 262.281,126.675 262.614,127.675 263.5,128.5C 266.672,130.252 269.672,132.252 272.5,134.5C 275.151,139.032 277.818,143.032 280.5,146.5C 281.167,146.167 281.833,145.833 282.5,145.5C 283.491,141.555 283.824,137.555 283.5,133.5C 283.833,133.5 284.167,133.5 284.5,133.5C 284.5,148.167 284.5,162.833 284.5,177.5C 277.331,158.987 265.331,144.32 248.5,133.5C 249.801,129.057 250.468,124.391 250.5,119.5 Z"/></g>
<g><path style="opacity:1" fill="#df704a" d="M 79.5,13.5 C 79.3166,33.5128 79.6499,53.5128 80.5,73.5C 80.3335,83.1724 80.5002,92.8391 81,102.5C 81.3333,101.167 81.6667,99.8333 82,98.5C 84.3802,103.874 87.5469,108.707 91.5,113C 91.1667,113.333 90.8333,113.667 90.5,114C 92.5265,116.787 94.8598,118.453 97.5,119C 96.1667,119.667 96.1667,120.333 97.5,121C 99.0806,121.707 100.581,122.54 102,123.5C 103.016,122.366 103.683,122.699 104,124.5C 105.094,117.426 105.927,110.426 106.5,103.5C 106.5,108.167 106.5,112.833 106.5,117.5C 106.5,127.5 106.5,137.5 106.5,147.5C 105.829,150.758 104.996,154.091 104,157.5C 102.424,158.013 101.091,157.346 100,155.5C 98.9895,155.892 98.4895,156.559 98.5,157.5C 95.119,156.409 93.4524,154.075 93.5,150.5C 92.1779,150.67 91.0113,150.337 90,149.5C 88.1778,145.856 86.3444,142.189 84.5,138.5C 83.5,137.167 82.5,137.167 81.5,138.5C 80.6858,140.766 80.1858,143.1 80,145.5C 79.5003,153.493 79.3336,161.493 79.5,169.5C 79.5,175.833 79.5,182.167 79.5,188.5C 79.5,197.833 79.5,207.167 79.5,216.5C 79.5,228.833 79.5,241.167 79.5,253.5C 78.1667,173.5 78.1667,93.5 79.5,13.5 Z"/></g>
<g><path style="opacity:0.818" fill="#d09e66" d="M 116.5,11.5 C 117.333,57.9982 117.833,104.665 118,151.5C 118.708,150.619 119.542,149.953 120.5,149.5C 120.306,151.912 118.973,152.912 116.5,152.5C 116.5,137.5 116.5,122.5 116.5,107.5C 116.5,75.5 116.5,43.5 116.5,11.5 Z"/></g>
<g><path style="opacity:1" fill="#f5b582" d="M 143.5,131.5 C 143.5,132.167 143.833,132.5 144.5,132.5C 144.047,133.458 143.381,134.292 142.5,135C 144.497,136.153 144.83,137.653 143.5,139.5C 142.549,138.674 141.549,138.508 140.5,139C 141.731,140.183 141.731,141.349 140.5,142.5C 138.78,144.131 136.78,145.297 134.5,146C 133.707,147.085 133.04,148.252 132.5,149.5C 128.469,148.197 124.469,148.197 120.5,149.5C 126.889,141.813 134.556,135.813 143.5,131.5 Z"/></g>
<g><path style="opacity:1" fill="#52bacc" d="M 57.5,157.5 C 56.606,154.454 56.4393,151.454 57,148.5C 54.4152,149.885 52.4152,149.218 51,146.5C 50.6582,148.619 49.8249,148.953 48.5,147.5C 50.1831,143.306 52.5164,139.473 55.5,136C 60.9919,135.514 62.8253,138.014 61,143.5C 60.0047,148.341 58.838,153.008 57.5,157.5 Z"/></g>
<g><path style="opacity:1" fill="#fe754d" d="M 106.5,147.5 C 106.5,154.833 106.5,162.167 106.5,169.5C 105.873,175.731 105.039,182.065 104,188.5C 102.829,187.107 101.329,186.273 99.5,186C 98.1667,185.333 98.1667,184.667 99.5,184C 98.365,183.251 97.365,183.417 96.5,184.5C 97.8334,185.62 98.3334,186.953 98,188.5C 96.3513,187.352 94.8513,186.019 93.5,184.5C 90.753,180.514 88.753,176.18 87.5,171.5C 86.1667,171.5 84.8333,171.5 83.5,171.5C 83.628,169.345 83.128,167.345 82,165.5C 81.3918,167.066 80.5585,168.4 79.5,169.5C 79.3336,161.493 79.5003,153.493 80,145.5C 80.1858,143.1 80.6858,140.766 81.5,138.5C 82.5,137.167 83.5,137.167 84.5,138.5C 86.3444,142.189 88.1778,145.856 90,149.5C 91.0113,150.337 92.1779,150.67 93.5,150.5C 93.4524,154.075 95.119,156.409 98.5,157.5C 98.4895,156.559 98.9895,155.892 100,155.5C 101.091,157.346 102.424,158.013 104,157.5C 104.996,154.091 105.829,150.758 106.5,147.5 Z"/></g>
<g><path style="opacity:1" fill="#5bcfdc" d="M 57.5,157.5 C 57.8016,160.059 57.4682,162.393 56.5,164.5C 56.6633,162.143 56.4966,159.81 56,157.5C 55.8333,160.333 54.3333,161.833 51.5,162C 50.2986,162.903 49.4652,164.069 49,165.5C 44.5665,164.595 42.2331,166.595 42,171.5C 41,170.167 40,168.833 39,167.5C 38.6174,168.056 38.1174,168.389 37.5,168.5C 39.8809,160.735 43.5476,153.735 48.5,147.5C 49.8249,148.953 50.6582,148.619 51,146.5C 52.4152,149.218 54.4152,149.885 57,148.5C 56.4393,151.454 56.606,154.454 57.5,157.5 Z"/></g>
<g><path style="opacity:1" fill="#ec704e" d="M 333.5,175.5 C 332.21,174.942 331.377,173.942 331,172.5C 330.282,173.451 329.449,173.617 328.5,173C 327.383,170.575 325.883,168.409 324,166.5C 323.667,167.833 323.333,169.167 323,170.5C 321.513,169.747 321.346,168.914 322.5,168C 320.766,166.266 318.766,164.932 316.5,164C 315.349,161.881 313.849,160.047 312,158.5C 311.5,159.667 310.667,160.5 309.5,161C 310.807,162.943 310.807,164.777 309.5,166.5C 309.167,166.5 308.833,166.5 308.5,166.5C 306.397,154.908 305.397,143.241 305.5,131.5C 306.768,130.572 308.101,130.405 309.5,131C 319.461,144.755 327.461,159.588 333.5,175.5 Z"/></g>
<g><path style="opacity:1" fill="#b5845b" d="M 150.5,158.5 C 148.151,160.341 145.485,161.674 142.5,162.5C 143.677,160.968 145.011,159.468 146.5,158C 147.928,157.421 149.262,157.588 150.5,158.5 Z"/></g>
<g><path style="opacity:0.793" fill="#9b4036" d="M 285.5,67.5 C 285.641,104.357 285.641,141.357 285.5,178.5C 285.167,178.5 284.833,178.5 284.5,178.5C 284.5,178.167 284.5,177.833 284.5,177.5C 284.5,162.833 284.5,148.167 284.5,133.5C 284.5,125.5 284.5,117.5 284.5,109.5C 284.5,106.5 284.5,103.5 284.5,100.5C 285.489,95.0247 285.822,89.358 285.5,83.5C 285.5,78.1667 285.5,72.8333 285.5,67.5 Z"/></g>
<g><path style="opacity:1" fill="#feb278" d="M 142.5,162.5 C 142.027,163.906 141.027,164.573 139.5,164.5C 130.711,168.447 123.544,174.447 118,182.5C 117.51,183.793 117.343,185.127 117.5,186.5C 117.167,186.5 116.833,186.5 116.5,186.5C 115.502,211.328 115.169,236.328 115.5,261.5C 114.778,261.082 114.278,260.416 114,259.5C 113.667,261.833 113.333,264.167 113,266.5C 111.283,261.449 109.783,256.449 108.5,251.5C 108.167,213.494 108.5,175.494 109.5,137.5C 111.394,138.601 112.061,139.934 111.5,141.5C 112.799,140.91 113.632,139.91 114,138.5C 114.772,142.89 114.606,147.223 113.5,151.5C 113.887,157.718 117.053,161.718 123,163.5C 123.308,162.692 123.808,162.025 124.5,161.5C 125.711,162.274 125.711,163.107 124.5,164C 126.5,164.667 128.5,164.667 130.5,164C 130.167,163.667 129.833,163.333 129.5,163C 130.253,161.513 131.086,161.346 132,162.5C 132.49,161.207 132.657,159.873 132.5,158.5C 136.087,157.244 139.754,156.744 143.5,157C 142.5,158.667 141.5,160.333 140.5,162C 141.094,162.464 141.761,162.631 142.5,162.5 Z"/></g>
<g><path style="opacity:1" fill="#5be7ed" d="M 56.5,164.5 C 56.5,164.833 56.5,165.167 56.5,165.5C 54.7993,171.919 54.1326,178.585 54.5,185.5C 53.9338,193.092 53.1005,200.759 52,208.5C 49.7943,204.469 49.2943,204.636 50.5,209C 48.9391,209.318 47.7724,210.151 47,211.5C 46.0255,209.122 45.3589,209.456 45,212.5C 44.6667,211.5 44.3333,210.5 44,209.5C 43.879,211.727 43.0456,213.56 41.5,215C 41.8333,215.333 42.1667,215.667 42.5,216C 41.3379,216.827 40.1712,217.66 39,218.5C 37.1648,216.916 35.1648,215.583 33,214.5C 33.0773,213.262 32.9106,212.262 32.5,211.5C 31.0311,214.298 30.1978,217.298 30,220.5C 29.5008,215.845 29.3342,211.179 29.5,206.5C 29.9981,201.848 30.3314,197.181 30.5,192.5C 31.2999,183.952 33.6332,175.952 37.5,168.5C 38.1174,168.389 38.6174,168.056 39,167.5C 40,168.833 41,170.167 42,171.5C 42.2331,166.595 44.5665,164.595 49,165.5C 49.4652,164.069 50.2986,162.903 51.5,162C 54.3333,161.833 55.8333,160.333 56,157.5C 56.4966,159.81 56.6633,162.143 56.5,164.5 Z"/></g>
<g><path style="opacity:0.976" fill="#d39d68" d="M 139.5,164.5 C 131.167,170.833 123.833,178.167 117.5,186.5C 117.343,185.127 117.51,183.793 118,182.5C 123.544,174.447 130.711,168.447 139.5,164.5 Z"/></g>
<g><path style="opacity:0.643" fill="#3a6e79" d="M 56.5,165.5 C 56.0737,174.334 55.4071,183.001 54.5,191.5C 54.5,189.5 54.5,187.5 54.5,185.5C 54.1326,178.585 54.7993,171.919 56.5,165.5 Z"/></g>
<g><path style="opacity:1" fill="#fd8455" d="M 333.5,175.5 C 333.5,175.833 333.5,176.167 333.5,176.5C 333.41,179.152 334.076,181.485 335.5,183.5C 335.41,186.152 336.076,188.485 337.5,190.5C 337.5,193.167 337.5,195.833 337.5,198.5C 337.785,200.288 337.452,201.955 336.5,203.5C 334.648,201.143 333.481,198.477 333,195.5C 331.644,196.38 330.144,196.714 328.5,196.5C 328.703,194.61 328.037,193.11 326.5,192C 323.253,189.879 319.919,188.046 316.5,186.5C 316.392,184.217 315.559,182.217 314,180.5C 313.5,181 313,181.5 312.5,182C 313.996,184.447 313.663,185.281 311.5,184.5C 311.802,181.941 311.468,179.607 310.5,177.5C 309.577,173.936 309.244,170.269 309.5,166.5C 310.807,164.777 310.807,162.943 309.5,161C 310.667,160.5 311.5,159.667 312,158.5C 313.849,160.047 315.349,161.881 316.5,164C 318.766,164.932 320.766,166.266 322.5,168C 321.346,168.914 321.513,169.747 323,170.5C 323.333,169.167 323.667,167.833 324,166.5C 325.883,168.409 327.383,170.575 328.5,173C 329.449,173.617 330.282,173.451 331,172.5C 331.377,173.942 332.21,174.942 333.5,175.5 Z"/></g>
<g><path style="opacity:0.906" fill="#856e4c" d="M 244.5,176.5 C 246.048,176.821 246.715,177.821 246.5,179.5C 245.599,178.71 244.932,177.71 244.5,176.5 Z"/></g>
<g><path style="opacity:1" fill="#fe694b" d="M 106.5,169.5 C 106.5,182.833 106.5,196.167 106.5,209.5C 105.834,213.021 105.167,216.687 104.5,220.5C 103.571,219.311 103.238,217.978 103.5,216.5C 101.833,215.833 100.167,215.167 98.5,214.5C 96.8121,211.421 95.4788,208.088 94.5,204.5C 92.8762,204.36 91.7096,205.027 91,206.5C 89.1476,204.77 89.3143,203.604 91.5,203C 88.3543,202.89 87.3543,201.557 88.5,199C 86.9512,197.786 85.7845,196.286 85,194.5C 84.586,194.957 84.086,195.291 83.5,195.5C 82.3615,188.927 81.5282,188.927 81,195.5C 80.8138,192.964 80.3138,190.631 79.5,188.5C 79.5,182.167 79.5,175.833 79.5,169.5C 80.5585,168.4 81.3918,167.066 82,165.5C 83.128,167.345 83.628,169.345 83.5,171.5C 84.8333,171.5 86.1667,171.5 87.5,171.5C 88.753,176.18 90.753,180.514 93.5,184.5C 94.8513,186.019 96.3513,187.352 98,188.5C 98.3334,186.953 97.8334,185.62 96.5,184.5C 97.365,183.417 98.365,183.251 99.5,184C 98.1667,184.667 98.1667,185.333 99.5,186C 101.329,186.273 102.829,187.107 104,188.5C 105.039,182.065 105.873,175.731 106.5,169.5 Z"/></g>
<g><path style="opacity:0.843" fill="#994c30" d="M 333.5,176.5 C 334.924,178.515 335.59,180.848 335.5,183.5C 334.076,181.485 333.41,179.152 333.5,176.5 Z"/></g>
<g><path style="opacity:1" fill="#ffc57e" d="M 116.5,186.5 C 117.159,217.518 116.492,248.185 114.5,278.5C 114.389,277.883 114.056,277.383 113.5,277C 115.414,272.142 116.081,266.975 115.5,261.5C 115.169,236.328 115.502,211.328 116.5,186.5 Z"/></g>
<g><path style="opacity:0.592" fill="#8f4a2f" d="M 335.5,183.5 C 336.924,185.515 337.59,187.848 337.5,190.5C 336.076,188.485 335.41,186.152 335.5,183.5 Z"/></g>
<g><path style="opacity:1" fill="#fe905a" d="M 337.5,198.5 C 338.657,201.273 339.324,204.273 339.5,207.5C 338.671,214.989 338.171,222.656 338,230.5C 337.396,232.686 336.23,232.852 334.5,231C 331.697,226.962 330.197,222.462 330,217.5C 325.501,212.317 320.001,208.817 313.5,207C 312.874,206.25 312.374,205.416 312,204.5C 311.5,197.842 311.334,191.175 311.5,184.5C 313.663,185.281 313.996,184.447 312.5,182C 313,181.5 313.5,181 314,180.5C 315.559,182.217 316.392,184.217 316.5,186.5C 319.919,188.046 323.253,189.879 326.5,192C 328.037,193.11 328.703,194.61 328.5,196.5C 330.144,196.714 331.644,196.38 333,195.5C 333.481,198.477 334.648,201.143 336.5,203.5C 337.452,201.955 337.785,200.288 337.5,198.5 Z"/></g>
<g><path style="opacity:0.418" fill="#955740" d="M 308.5,166.5 C 308.833,166.5 309.167,166.5 309.5,166.5C 309.244,170.269 309.577,173.936 310.5,177.5C 310.5,191.167 310.5,204.833 310.5,218.5C 310.818,223.032 310.485,227.366 309.5,231.5C 309.682,209.822 309.349,188.155 308.5,166.5 Z"/></g>
<g><path style="opacity:0.537" fill="#338084" d="M 30.5,192.5 C 30.3314,197.181 29.9981,201.848 29.5,206.5C 29.1667,206.5 28.8333,206.5 28.5,206.5C 28.3618,201.586 29.0285,196.919 30.5,192.5 Z"/></g>
<g><path style="opacity:1" fill="#fe5c48" d="M 79.5,188.5 C 80.3138,190.631 80.8138,192.964 81,195.5C 81.5282,188.927 82.3615,188.927 83.5,195.5C 84.086,195.291 84.586,194.957 85,194.5C 85.7845,196.286 86.9512,197.786 88.5,199C 87.3543,201.557 88.3543,202.89 91.5,203C 89.3143,203.604 89.1476,204.77 91,206.5C 91.7096,205.027 92.8762,204.36 94.5,204.5C 95.4788,208.088 96.8121,211.421 98.5,214.5C 100.167,215.167 101.833,215.833 103.5,216.5C 103.238,217.978 103.571,219.311 104.5,220.5C 105.167,216.687 105.834,213.021 106.5,209.5C 106.5,219.833 106.5,230.167 106.5,240.5C 105.839,241.718 105.172,243.051 104.5,244.5C 100.791,239.956 96.624,235.956 92,232.5C 91.3162,231.216 91.4829,230.049 92.5,229C 91.552,228.517 90.552,228.351 89.5,228.5C 90.3553,224.204 88.6886,221.537 84.5,220.5C 82.2328,213.834 81.0662,214.168 81,221.5C 80.8019,219.618 80.3019,217.952 79.5,216.5C 79.5,207.167 79.5,197.833 79.5,188.5 Z"/></g>
<g><path style="opacity:1" fill="#5bdaee" d="M 54.5,219.5 C 55.1667,221.167 55.8333,222.833 56.5,224.5C 57.3686,226.717 57.702,229.05 57.5,231.5C 57.7989,233.604 57.4656,235.604 56.5,237.5C 55.0295,236.619 54.1962,235.286 54,233.5C 51.4802,238.846 49.8135,244.179 49,249.5C 48.2279,246.206 48.3946,243.039 49.5,240C 48.1667,239.333 46.8333,239.333 45.5,240C 45.9574,240.414 46.2907,240.914 46.5,241.5C 42.0536,245.395 38.2203,244.728 35,239.5C 33.984,240.634 33.3173,240.301 33,238.5C 32.1841,239.823 31.0174,240.489 29.5,240.5C 29.5,239.833 29.5,239.167 29.5,238.5C 29.8634,234.016 30.8634,229.683 32.5,225.5C 34.616,227.606 36.4493,230.606 38,234.5C 39.2036,233.529 39.7036,232.529 39.5,231.5C 40.1667,232.167 40.8333,232.833 41.5,233.5C 41.8333,233.167 42.1667,232.833 42.5,232.5C 40.5532,230.724 40.2199,228.724 41.5,226.5C 42.1667,227.5 42.8333,228.5 43.5,229.5C 44.7112,228.726 44.7112,227.893 43.5,227C 45.7055,222.304 47.5388,217.804 49,213.5C 49.6924,214.025 50.1924,214.692 50.5,215.5C 49.4383,218.103 49.2716,220.77 50,223.5C 50.8624,221.913 51.5291,220.246 52,218.5C 52.6008,220.359 53.4341,220.692 54.5,219.5 Z"/></g>
<g><path style="opacity:1" fill="#55d6e4" d="M 54.5,185.5 C 54.5,187.5 54.5,189.5 54.5,191.5C 54.5,194.833 54.5,198.167 54.5,201.5C 54.5,207.5 54.5,213.5 54.5,219.5C 53.4341,220.692 52.6008,220.359 52,218.5C 51.5291,220.246 50.8624,221.913 50,223.5C 49.2716,220.77 49.4383,218.103 50.5,215.5C 50.1924,214.692 49.6924,214.025 49,213.5C 47.5388,217.804 45.7055,222.304 43.5,227C 44.7112,227.893 44.7112,228.726 43.5,229.5C 42.8333,228.5 42.1667,227.5 41.5,226.5C 40.2199,228.724 40.5532,230.724 42.5,232.5C 42.1667,232.833 41.8333,233.167 41.5,233.5C 40.8333,232.833 40.1667,232.167 39.5,231.5C 39.7036,232.529 39.2036,233.529 38,234.5C 36.4493,230.606 34.616,227.606 32.5,225.5C 30.8634,229.683 29.8634,234.016 29.5,238.5C 27.4438,228.001 27.1105,217.335 28.5,206.5C 28.8333,206.5 29.1667,206.5 29.5,206.5C 29.3342,211.179 29.5008,215.845 30,220.5C 30.1978,217.298 31.0311,214.298 32.5,211.5C 32.9106,212.262 33.0773,213.262 33,214.5C 35.1648,215.583 37.1648,216.916 39,218.5C 40.1712,217.66 41.3379,216.827 42.5,216C 42.1667,215.667 41.8333,215.333 41.5,215C 43.0456,213.56 43.879,211.727 44,209.5C 44.3333,210.5 44.6667,211.5 45,212.5C 45.3589,209.456 46.0255,209.122 47,211.5C 47.7724,210.151 48.9391,209.318 50.5,209C 49.2943,204.636 49.7943,204.469 52,208.5C 53.1005,200.759 53.9338,193.092 54.5,185.5 Z"/></g>
<g><path style="opacity:1" fill="#397282" d="M 54.5,201.5 C 55.4512,208.995 56.1178,216.661 56.5,224.5C 55.8333,222.833 55.1667,221.167 54.5,219.5C 54.5,213.5 54.5,207.5 54.5,201.5 Z"/></g>
<g><path style="opacity:1" fill="#ab613c" d="M 337.5,190.5 C 341.547,206.72 342.214,223.053 339.5,239.5C 339.5,228.833 339.5,218.167 339.5,207.5C 339.324,204.273 338.657,201.273 337.5,198.5C 337.5,195.833 337.5,193.167 337.5,190.5 Z"/></g>
<g><path style="opacity:1" fill="#fed188" d="M 280.5,255.5 C 279.833,255.833 279.167,256.167 278.5,256.5C 276.924,254.269 274.757,252.603 272,251.5C 271.586,251.957 271.086,252.291 270.5,252.5C 269.3,251.469 267.966,250.635 266.5,250C 264.18,246.515 261.513,243.349 258.5,240.5C 255.231,241.726 254.064,240.726 255,237.5C 254.333,238.833 253.667,238.833 253,237.5C 252.802,239.382 252.302,241.048 251.5,242.5C 251.075,235.385 251.575,228.385 253,221.5C 253.465,222.931 254.299,224.097 255.5,225C 257.883,227.2 260.55,229.034 263.5,230.5C 266.357,234.589 269.857,237.922 274,240.5C 274.772,240.355 275.439,240.022 276,239.5C 276.403,243.637 277.903,247.303 280.5,250.5C 281.251,249.624 281.751,248.624 282,247.5C 282.712,250.438 282.212,253.104 280.5,255.5 Z"/></g>
<g><path style="opacity:1" fill="#fc9c5e" d="M 310.5,177.5 C 311.468,179.607 311.802,181.941 311.5,184.5C 311.334,191.175 311.5,197.842 312,204.5C 312.374,205.416 312.874,206.25 313.5,207C 320.001,208.817 325.501,212.317 330,217.5C 330.197,222.462 331.697,226.962 334.5,231C 336.23,232.852 337.396,232.686 338,230.5C 338.171,222.656 338.671,214.989 339.5,207.5C 339.5,218.167 339.5,228.833 339.5,239.5C 339.452,245.46 338.452,251.127 336.5,256.5C 335.732,257.263 335.232,258.263 335,259.5C 334.692,258.692 334.192,258.025 333.5,257.5C 332.752,259.332 331.752,260.999 330.5,262.5C 330.977,263.478 331.643,264.311 332.5,265C 332.272,265.399 331.938,265.565 331.5,265.5C 330.849,266.091 330.182,266.757 329.5,267.5C 328.115,263.622 326.949,263.622 326,267.5C 326.357,264.043 326.524,260.709 326.5,257.5C 325.376,254.55 324.042,251.717 322.5,249C 323.196,247.512 322.862,246.012 321.5,244.5C 320.325,245.855 319.325,245.688 318.5,244C 318.833,243.667 319.167,243.333 319.5,243C 318.207,242.51 316.873,242.343 315.5,242.5C 314.685,241.571 313.852,240.571 313,239.5C 312.042,232.37 311.208,225.37 310.5,218.5C 310.5,204.833 310.5,191.167 310.5,177.5 Z"/></g>
<g><path style="opacity:0.765" fill="#ceb173" d="M 284.5,178.5 C 284.833,178.5 285.167,178.5 285.5,178.5C 285.667,203.836 285.5,229.169 285,254.5C 280.399,258.213 275.565,261.547 270.5,264.5C 270.389,263.883 270.056,263.383 269.5,263C 272.567,260.812 275.567,258.645 278.5,256.5C 279.167,256.167 279.833,255.833 280.5,255.5C 281.482,254.859 282.482,254.193 283.5,253.5C 284.5,228.509 284.833,203.509 284.5,178.5 Z"/></g>
<g><path style="opacity:1" fill="#feca88" d="M 278.5,256.5 C 275.567,258.645 272.567,260.812 269.5,263C 270.056,263.383 270.389,263.883 270.5,264.5C 269.504,264.586 268.671,264.252 268,263.5C 262.936,267.619 257.436,271.119 251.5,274C 252.252,274.671 252.586,275.504 252.5,276.5C 250.541,270.25 249.874,263.584 250.5,256.5C 251.486,252.03 251.819,247.363 251.5,242.5C 252.302,241.048 252.802,239.382 253,237.5C 253.667,238.833 254.333,238.833 255,237.5C 254.064,240.726 255.231,241.726 258.5,240.5C 261.513,243.349 264.18,246.515 266.5,250C 267.966,250.635 269.3,251.469 270.5,252.5C 271.086,252.291 271.586,251.957 272,251.5C 274.757,252.603 276.924,254.269 278.5,256.5 Z"/></g>
<g><path style="opacity:1" fill="#fc4e44" d="M 106.5,240.5 C 106.5,251.5 106.5,262.5 106.5,273.5C 98.3865,268.604 90.3865,263.437 82.5,258C 80.8588,256.871 79.8588,255.371 79.5,253.5C 79.5,241.167 79.5,228.833 79.5,216.5C 80.3019,217.952 80.8019,219.618 81,221.5C 81.0662,214.168 82.2328,213.834 84.5,220.5C 88.6886,221.537 90.3553,224.204 89.5,228.5C 90.552,228.351 91.552,228.517 92.5,229C 91.4829,230.049 91.3162,231.216 92,232.5C 96.624,235.956 100.791,239.956 104.5,244.5C 105.172,243.051 105.839,241.718 106.5,240.5 Z"/></g>
<g><path style="opacity:1" fill="#5bcee8" d="M 57.5,231.5 C 59.277,236.947 60.6103,242.614 61.5,248.5C 61.8115,252.68 61.1448,256.68 59.5,260.5C 58.3247,259.145 57.3247,259.312 56.5,261C 58.3291,266.497 56.6624,271.163 51.5,275C 52.1667,275.333 52.8333,275.667 53.5,276C 49.1845,278.019 47.5178,276.686 48.5,272C 48.2005,269.976 47.3671,269.476 46,270.5C 44.7101,268.208 43.0435,266.208 41,264.5C 37.9082,269.97 36.9082,269.637 38,263.5C 37.6667,264.167 37.3333,264.833 37,265.5C 36.7216,264.584 36.2216,263.918 35.5,263.5C 34.2616,261.786 33.595,259.786 33.5,257.5C 33.8294,254.772 33.1628,252.438 31.5,250.5C 30.4544,247.272 29.7878,243.939 29.5,240.5C 31.0174,240.489 32.1841,239.823 33,238.5C 33.3173,240.301 33.984,240.634 35,239.5C 38.2203,244.728 42.0536,245.395 46.5,241.5C 46.2907,240.914 45.9574,240.414 45.5,240C 46.8333,239.333 48.1667,239.333 49.5,240C 48.3946,243.039 48.2279,246.206 49,249.5C 49.8135,244.179 51.4802,238.846 54,233.5C 54.1962,235.286 55.0295,236.619 56.5,237.5C 57.4656,235.604 57.7989,233.604 57.5,231.5 Z"/></g>
<g><path style="opacity:0.661" fill="#906e4d" d="M 248.5,184.5 C 249.29,185.609 249.79,186.942 250,188.5C 250.5,211.164 250.667,233.831 250.5,256.5C 249.874,263.584 250.541,270.25 252.5,276.5C 251.791,277.404 250.791,277.737 249.5,277.5C 249.08,246.349 248.747,215.349 248.5,184.5 Z"/></g>
<g><path style="opacity:1" fill="#cd8d58" d="M 309.5,231.5 C 310.368,235.808 310.534,240.141 310,244.5C 309.727,246.329 308.893,247.829 307.5,249C 308.059,249.725 308.392,250.558 308.5,251.5C 307.667,254.833 306.833,258.167 306,261.5C 305.34,263.324 304.173,264.657 302.5,265.5C 305.881,254.259 308.214,242.925 309.5,231.5 Z"/></g>
<g><path style="opacity:0.616" fill="#346c7e" d="M 31.5,250.5 C 33.1628,252.438 33.8294,254.772 33.5,257.5C 32.3882,255.401 31.7215,253.067 31.5,250.5 Z"/></g>
<g><path style="opacity:0.735" fill="#ca8555" d="M 116.5,186.5 C 116.833,186.5 117.167,186.5 117.5,186.5C 117.667,217.835 117.5,249.168 117,280.5C 116.005,279.934 115.172,279.267 114.5,278.5C 116.492,248.185 117.159,217.518 116.5,186.5 Z"/></g>
<g><path style="opacity:1" fill="#fea860" d="M 315.5,242.5 C 316.873,242.343 318.207,242.51 319.5,243C 319.167,243.333 318.833,243.667 318.5,244C 319.325,245.688 320.325,245.855 321.5,244.5C 322.862,246.012 323.196,247.512 322.5,249C 324.042,251.717 325.376,254.55 326.5,257.5C 326.524,260.709 326.357,264.043 326,267.5C 326.949,263.622 328.115,263.622 329.5,267.5C 330.182,266.757 330.849,266.091 331.5,265.5C 330.886,269.135 330.552,272.802 330.5,276.5C 330.598,278.553 329.931,280.22 328.5,281.5C 326.296,280.649 324.963,281.649 324.5,284.5C 325.246,285.736 325.579,287.07 325.5,288.5C 323.388,290.685 320.888,292.352 318,293.5C 317.138,295.087 316.471,296.754 316,298.5C 312.041,297.219 308.874,298.386 306.5,302C 304.527,302.495 302.527,302.662 300.5,302.5C 300.214,300.723 299.547,299.056 298.5,297.5C 298.722,295.945 299.389,294.611 300.5,293.5C 299.879,291.002 300.545,288.668 302.5,286.5C 302.291,285.914 301.957,285.414 301.5,285C 302.931,284.535 304.097,283.701 305,282.5C 305.601,279.363 306.601,276.363 308,273.5C 309.83,266.342 311.163,259.009 312,251.5C 313.5,249.333 315.333,247.5 317.5,246C 316.177,245.184 315.511,244.017 315.5,242.5 Z"/></g>
<g><path style="opacity:1" fill="#fb9f6b" d="M 106.5,117.5 C 107.095,170.675 107.761,215.341 108.5,251.5C 109.783,256.449 111.283,261.449 113,266.5C 113.333,264.167 113.667,261.833 114,259.5C 114.278,260.416 114.778,261.082 115.5,261.5C 116.081,266.975 115.414,272.142 113.5,277C 114.056,277.383 114.389,277.883 114.5,278.5C 111.489,277.331 108.822,275.664 106.5,273.5C 106.5,262.5 106.5,251.5 106.5,240.5C 106.5,230.167 106.5,219.833 106.5,209.5C 106.5,196.167 106.5,182.833 106.5,169.5C 106.5,162.167 106.5,154.833 106.5,147.5C 106.5,137.5 106.5,127.5 106.5,117.5 Z"/></g>
<g><path style="opacity:1" fill="#d48b51" d="M 336.5,256.5 C 335.479,263.554 333.479,270.221 330.5,276.5C 330.552,272.802 330.886,269.135 331.5,265.5C 331.938,265.565 332.272,265.399 332.5,265C 331.643,264.311 330.977,263.478 330.5,262.5C 331.752,260.999 332.752,259.332 333.5,257.5C 334.192,258.025 334.692,258.692 335,259.5C 335.232,258.263 335.732,257.263 336.5,256.5 Z"/></g>
<g><path style="opacity:1" fill="#5bc2e4" d="M 61.5,248.5 C 64.145,255.425 66.8117,262.425 69.5,269.5C 68.2126,268.472 67.0459,268.805 66,270.5C 64.7387,270.241 63.7387,269.574 63,268.5C 61.9562,270.715 61.2895,273.048 61,275.5C 57.8457,277.46 56.679,280.126 57.5,283.5C 56.2815,283.109 55.4482,283.776 55,285.5C 52.2778,283.061 49.2778,282.394 46,283.5C 45.1237,281.365 43.6237,280.031 41.5,279.5C 38.929,274.463 36.929,269.129 35.5,263.5C 36.2216,263.918 36.7216,264.584 37,265.5C 37.3333,264.833 37.6667,264.167 38,263.5C 36.9082,269.637 37.9082,269.97 41,264.5C 43.0435,266.208 44.7101,268.208 46,270.5C 47.3671,269.476 48.2005,269.976 48.5,272C 47.5178,276.686 49.1845,278.019 53.5,276C 52.8333,275.667 52.1667,275.333 51.5,275C 56.6624,271.163 58.3291,266.497 56.5,261C 57.3247,259.312 58.3247,259.145 59.5,260.5C 61.1448,256.68 61.8115,252.68 61.5,248.5 Z"/></g>
<g><path style="opacity:0.982" fill="#c9a06f" d="M 270.5,264.5 C 264.795,268.859 258.795,272.859 252.5,276.5C 252.586,275.504 252.252,274.671 251.5,274C 257.436,271.119 262.936,267.619 268,263.5C 268.671,264.252 269.504,264.586 270.5,264.5 Z"/></g>
<g><path style="opacity:1" fill="#be7e49" d="M 328.5,281.5 C 328.293,284.241 327.293,286.574 325.5,288.5C 325.579,287.07 325.246,285.736 324.5,284.5C 324.963,281.649 326.296,280.649 328.5,281.5 Z"/></g>
<g><path style="opacity:1" fill="#5dbae3" d="M 69.5,269.5 C 71.0075,271.181 72.0075,273.181 72.5,275.5C 71.1779,275.33 70.0113,275.663 69,276.5C 68.07,281.799 67.4034,287.133 67,292.5C 65.2283,297.388 61.895,300.721 57,302.5C 54.4816,300.482 52.9816,297.815 52.5,294.5C 51.4728,293.209 50.4728,293.209 49.5,294.5C 46.0734,289.984 43.4068,284.984 41.5,279.5C 43.6237,280.031 45.1237,281.365 46,283.5C 49.2778,282.394 52.2778,283.061 55,285.5C 55.4482,283.776 56.2815,283.109 57.5,283.5C 56.679,280.126 57.8457,277.46 61,275.5C 61.2895,273.048 61.9562,270.715 63,268.5C 63.7387,269.574 64.7387,270.241 66,270.5C 67.0459,268.805 68.2126,268.472 69.5,269.5 Z"/></g>
<g><path style="opacity:1" fill="#eb9d68" d="M 302.5,266.5 C 302.227,268.451 302.893,269.951 304.5,271C 303.286,273.351 302.452,275.851 302,278.5C 299.773,284.592 296.44,290.925 292,297.5C 290.603,299.07 289.103,300.404 287.5,301.5C 286.163,302.315 285.163,303.482 284.5,305C 281.579,306.698 278.579,308.198 275.5,309.5C 287.291,296.918 296.291,282.584 302.5,266.5 Z"/></g>
<g><path style="opacity:1" fill="#f7a25f" d="M 310.5,218.5 C 311.208,225.37 312.042,232.37 313,239.5C 313.852,240.571 314.685,241.571 315.5,242.5C 315.511,244.017 316.177,245.184 317.5,246C 315.333,247.5 313.5,249.333 312,251.5C 311.163,259.009 309.83,266.342 308,273.5C 306.601,276.363 305.601,279.363 305,282.5C 304.097,283.701 302.931,284.535 301.5,285C 301.957,285.414 302.291,285.914 302.5,286.5C 300.545,288.668 299.879,291.002 300.5,293.5C 299.389,294.611 298.722,295.945 298.5,297.5C 299.547,299.056 300.214,300.723 300.5,302.5C 302.527,302.662 304.527,302.495 306.5,302C 308.874,298.386 312.041,297.219 316,298.5C 316.471,296.754 317.138,295.087 318,293.5C 320.888,292.352 323.388,290.685 325.5,288.5C 319.791,301.525 312.124,313.192 302.5,323.5C 302.067,319.538 303.4,316.372 306.5,314C 306.306,312.43 306.306,310.93 306.5,309.5C 303.833,311.167 301.167,312.833 298.5,314.5C 295.916,313.607 293.249,313.274 290.5,313.5C 291.013,310.551 291.013,307.718 290.5,305C 293.74,300.467 293.074,299.634 288.5,302.5C 287.893,302.376 287.56,302.043 287.5,301.5C 289.103,300.404 290.603,299.07 292,297.5C 296.44,290.925 299.773,284.592 302,278.5C 302.452,275.851 303.286,273.351 304.5,271C 302.893,269.951 302.227,268.451 302.5,266.5C 302.5,266.167 302.5,265.833 302.5,265.5C 304.173,264.657 305.34,263.324 306,261.5C 306.833,258.167 307.667,254.833 308.5,251.5C 308.392,250.558 308.059,249.725 307.5,249C 308.893,247.829 309.727,246.329 310,244.5C 310.534,240.141 310.368,235.808 309.5,231.5C 310.485,227.366 310.818,223.032 310.5,218.5 Z"/></g>
<g><path style="opacity:1" fill="#5faee0" d="M 72.5,275.5 C 73.3382,275.842 73.6716,276.508 73.5,277.5C 70.7479,282.372 69.7479,287.539 70.5,293C 68.8575,298.426 66.6908,303.593 64,308.5C 63.5034,310.81 63.3367,313.143 63.5,315.5C 58.0563,309.049 53.3896,302.049 49.5,294.5C 50.4728,293.209 51.4728,293.209 52.5,294.5C 52.9816,297.815 54.4816,300.482 57,302.5C 61.895,300.721 65.2283,297.388 67,292.5C 67.4034,287.133 68.07,281.799 69,276.5C 70.0113,275.663 71.1779,275.33 72.5,275.5 Z"/></g>
<g><path style="opacity:1" fill="#6a99dc" d="M 75.5,280.5 C 78.08,283.989 80.4133,287.656 82.5,291.5C 81.8826,291.389 81.3826,291.056 81,290.5C 80.3849,300.879 80.8849,311.212 82.5,321.5C 82.8873,324.852 81.8873,327.686 79.5,330C 80.897,331.506 81.5637,333.339 81.5,335.5C 75.4623,330.463 70.1289,324.797 65.5,318.5C 66.9305,318.421 68.2638,318.754 69.5,319.5C 73.611,312.118 75.611,304.118 75.5,295.5C 74.4692,290.531 74.4692,285.531 75.5,280.5 Z"/></g>
<g><path style="opacity:1" fill="#fc9d61" d="M 302.5,323.5 C 300.554,322.801 298.554,323.135 296.5,324.5C 297.428,325.768 297.595,327.101 297,328.5C 295.951,327.483 294.784,327.316 293.5,328C 291.059,330.062 288.392,331.896 285.5,333.5C 286.127,334.417 286.461,335.417 286.5,336.5C 284.956,336.703 283.622,337.37 282.5,338.5C 280.45,337.923 279.45,336.59 279.5,334.5C 276.859,335.263 274.192,335.43 271.5,335C 267.236,331.38 262.569,328.38 257.5,326C 258.056,325.617 258.389,325.117 258.5,324.5C 264.314,319.745 269.98,314.745 275.5,309.5C 278.579,308.198 281.579,306.698 284.5,305C 285.163,303.482 286.163,302.315 287.5,301.5C 287.56,302.043 287.893,302.376 288.5,302.5C 293.074,299.634 293.74,300.467 290.5,305C 291.013,307.718 291.013,310.551 290.5,313.5C 293.249,313.274 295.916,313.607 298.5,314.5C 301.167,312.833 303.833,311.167 306.5,309.5C 306.306,310.93 306.306,312.43 306.5,314C 303.4,316.372 302.067,319.538 302.5,323.5 Z"/></g>
<g><path style="opacity:1" fill="#64a9e5" d="M 73.5,277.5 C 74.9063,277.973 75.573,278.973 75.5,280.5C 74.4692,285.531 74.4692,290.531 75.5,295.5C 75.611,304.118 73.611,312.118 69.5,319.5C 68.2638,318.754 66.9305,318.421 65.5,318.5C 64.8333,317.5 64.1667,316.5 63.5,315.5C 63.3367,313.143 63.5034,310.81 64,308.5C 66.6908,303.593 68.8575,298.426 70.5,293C 69.7479,287.539 70.7479,282.372 73.5,277.5 Z"/></g>
<g><path style="opacity:1" fill="#748cdb" d="M 82.5,291.5 C 84.4834,298.648 85.9834,305.981 87,313.5C 89.5929,319.519 91.7596,325.685 93.5,332C 92.6932,335.418 91.6932,338.751 90.5,342C 91.056,342.383 91.3893,342.883 91.5,343.5C 87.8971,341.237 84.5638,338.57 81.5,335.5C 81.5637,333.339 80.897,331.506 79.5,330C 81.8873,327.686 82.8873,324.852 82.5,321.5C 80.8849,311.212 80.3849,300.879 81,290.5C 81.3826,291.056 81.8826,291.389 82.5,291.5 Z"/></g>
<g><path style="opacity:1" fill="#8084d7" d="M 82.5,291.5 C 85.5162,294.52 88.1829,297.854 90.5,301.5C 89.8614,302.097 89.528,302.93 89.5,304C 91.0206,308.686 91.854,313.52 92,318.5C 94.1678,323.183 96.3345,327.85 98.5,332.5C 98.2907,333.086 97.9574,333.586 97.5,334C 99.4412,337.794 99.6079,341.627 98,345.5C 97.3292,346.252 96.4959,346.586 95.5,346.5C 93.5956,346.262 92.2623,345.262 91.5,343.5C 91.3893,342.883 91.056,342.383 90.5,342C 91.6932,338.751 92.6932,335.418 93.5,332C 91.7596,325.685 89.5929,319.519 87,313.5C 85.9834,305.981 84.4834,298.648 82.5,291.5 Z"/></g>
<g><path style="opacity:1" fill="#8b7ccf" d="M 90.5,301.5 C 92.1667,302.5 93.5,303.833 94.5,305.5C 93.6236,305.369 92.9569,305.702 92.5,306.5C 96.2858,310.071 98.4524,314.405 99,319.5C 102.475,328.935 106.309,338.101 110.5,347C 110.402,350.285 110.402,353.451 110.5,356.5C 104.951,353.944 99.9508,350.61 95.5,346.5C 96.4959,346.586 97.3292,346.252 98,345.5C 99.6079,341.627 99.4412,337.794 97.5,334C 97.9574,333.586 98.2907,333.086 98.5,332.5C 96.3345,327.85 94.1678,323.183 92,318.5C 91.854,313.52 91.0206,308.686 89.5,304C 89.528,302.93 89.8614,302.097 90.5,301.5 Z"/></g>
<g><path style="opacity:1" fill="#f68f5a" d="M 258.5,324.5 C 258.389,325.117 258.056,325.617 257.5,326C 262.569,328.38 267.236,331.38 271.5,335C 274.192,335.43 276.859,335.263 279.5,334.5C 279.45,336.59 280.45,337.923 282.5,338.5C 283.622,337.37 284.956,336.703 286.5,336.5C 285.498,338.011 284.831,339.678 284.5,341.5C 283.833,342.833 282.833,343.833 281.5,344.5C 281.631,343.624 281.298,342.957 280.5,342.5C 279.833,343.5 279.167,344.5 278.5,345.5C 275.904,344.787 273.237,344.787 270.5,345.5C 270.137,343.223 269.137,342.556 267.5,343.5C 263.833,341.333 260.167,339.167 256.5,337C 254.959,334.96 253.626,332.793 252.5,330.5C 250.333,331.792 248,332.625 245.5,333C 243.141,334.242 241.141,335.742 239.5,337.5C 238.609,336.89 237.609,336.557 236.5,336.5C 243.794,332.518 251.127,328.518 258.5,324.5 Z"/></g>
<g><path style="opacity:1" fill="#dd8853" d="M 302.5,323.5 C 297.479,330.521 291.479,336.521 284.5,341.5C 284.831,339.678 285.498,338.011 286.5,336.5C 286.461,335.417 286.127,334.417 285.5,333.5C 288.392,331.896 291.059,330.062 293.5,328C 294.784,327.316 295.951,327.483 297,328.5C 297.595,327.101 297.428,325.768 296.5,324.5C 298.554,323.135 300.554,322.801 302.5,323.5 Z"/></g>
<g><path style="opacity:1" fill="#fc8a5a" d="M 270.5,345.5 C 268.974,346.105 267.974,347.271 267.5,349C 263.815,349.914 264.148,350.581 268.5,351C 265.472,352.844 262.472,354.678 259.5,356.5C 259.44,355.957 259.107,355.624 258.5,355.5C 256.831,356.89 255.164,357.223 253.5,356.5C 253.977,355.522 254.643,354.689 255.5,354C 251.286,350.879 247.286,347.546 243.5,344C 244.956,343.577 245.456,342.744 245,341.5C 244,341.833 243,342.167 242,342.5C 241.383,341.551 241.549,340.718 242.5,340C 241.922,338.583 240.922,337.75 239.5,337.5C 241.141,335.742 243.141,334.242 245.5,333C 248,332.625 250.333,331.792 252.5,330.5C 253.626,332.793 254.959,334.96 256.5,337C 260.167,339.167 263.833,341.333 267.5,343.5C 269.137,342.556 270.137,343.223 270.5,345.5 Z"/></g>
<g><path style="opacity:1" fill="#9a71c4" d="M 94.5,305.5 C 98.5259,309.195 102.526,312.862 106.5,316.5C 105.233,315.913 104.233,315.913 103.5,316.5C 107.598,320.625 109.432,325.625 109,331.5C 113.218,339.882 116.718,348.548 119.5,357.5C 119.291,358.086 118.957,358.586 118.5,359C 120.407,360.122 122.407,360.955 124.5,361.5C 124.5,362.167 124.5,362.833 124.5,363.5C 119.247,362.207 114.581,359.874 110.5,356.5C 110.402,353.451 110.402,350.285 110.5,347C 106.309,338.101 102.475,328.935 99,319.5C 98.4524,314.405 96.2858,310.071 92.5,306.5C 92.9569,305.702 93.6236,305.369 94.5,305.5 Z"/></g>
<g><path style="opacity:1" fill="#a967bc" d="M 106.5,316.5 C 109.019,321.703 111.685,326.87 114.5,332C 114.043,332.414 113.709,332.914 113.5,333.5C 116.911,339.066 120.078,344.732 123,350.5C 123.711,352.899 123.544,355.232 122.5,357.5C 123.63,358.622 124.297,359.956 124.5,361.5C 122.407,360.955 120.407,360.122 118.5,359C 118.957,358.586 119.291,358.086 119.5,357.5C 116.718,348.548 113.218,339.882 109,331.5C 109.432,325.625 107.598,320.625 103.5,316.5C 104.233,315.913 105.233,315.913 106.5,316.5 Z"/></g>
<g><path style="opacity:1" fill="#fa7954" d="M 236.5,336.5 C 237.609,336.557 238.609,336.89 239.5,337.5C 240.922,337.75 241.922,338.583 242.5,340C 241.549,340.718 241.383,341.551 242,342.5C 243,342.167 244,341.833 245,341.5C 245.456,342.744 244.956,343.577 243.5,344C 247.286,347.546 251.286,350.879 255.5,354C 254.643,354.689 253.977,355.522 253.5,356.5C 255.164,357.223 256.831,356.89 258.5,355.5C 259.107,355.624 259.44,355.957 259.5,356.5C 259.833,357.167 260.167,357.833 260.5,358.5C 254.965,362.246 248.965,365.246 242.5,367.5C 241.251,365.864 239.584,364.697 237.5,364C 238.357,363.311 239.023,362.478 239.5,361.5C 233.373,356.809 229.04,351.809 226.5,346.5C 227.025,345.808 227.692,345.308 228.5,345C 225.749,344.057 223.083,343.224 220.5,342.5C 221.492,342.672 222.158,342.338 222.5,341.5C 226.94,339.462 231.607,337.796 236.5,336.5 Z"/></g>
<g><path style="opacity:1" fill="#fa6f52" d="M 220.5,342.5 C 223.083,343.224 225.749,344.057 228.5,345C 227.692,345.308 227.025,345.808 226.5,346.5C 229.04,351.809 233.373,356.809 239.5,361.5C 239.023,362.478 238.357,363.311 237.5,364C 239.584,364.697 241.251,365.864 242.5,367.5C 238.429,369.635 234.095,370.968 229.5,371.5C 225.029,371.328 224.696,370.494 228.5,369C 225.258,368.717 224.924,367.883 227.5,366.5C 225.684,364.882 224.351,362.882 223.5,360.5C 222.914,360.709 222.414,361.043 222,361.5C 218.719,357.843 215.886,353.843 213.5,349.5C 213.833,348.833 214.167,348.167 214.5,347.5C 212.257,346.526 209.924,346.192 207.5,346.5C 206.508,346.672 205.842,346.338 205.5,345.5C 208.48,344.975 211.313,344.975 214,345.5C 216.649,345.348 218.816,344.348 220.5,342.5 Z"/></g>
<g><path style="opacity:1" fill="#cf4f9b" d="M 124.5,329.5 C 130.357,331.93 136.023,334.597 141.5,337.5C 139.042,338.623 136.875,338.623 135,337.5C 137.168,347.17 141.501,355.836 148,363.5C 147.937,366.767 149.437,368.934 152.5,370C 151.5,370.333 150.5,370.667 149.5,371C 150.571,371.852 151.571,372.685 152.5,373.5C 147.946,372.616 143.613,371.283 139.5,369.5C 140.552,369.649 141.552,369.483 142.5,369C 139.328,366.172 137.495,362.672 137,358.5C 132.591,352.622 128.925,346.289 126,339.5C 124.801,336.274 124.301,332.941 124.5,329.5 Z"/></g>
<g><path style="opacity:1" fill="#a92f58" d="M 156.5,342.5 C 160.078,342.549 163.411,343.215 166.5,344.5C 163.941,344.198 161.607,344.532 159.5,345.5C 158.167,344.833 157.167,343.833 156.5,342.5 Z"/></g>
<g><path style="opacity:1" fill="#be4f41" d="M 222.5,341.5 C 222.158,342.338 221.492,342.672 220.5,342.5C 218.816,344.348 216.649,345.348 214,345.5C 211.313,344.975 208.48,344.975 205.5,345.5C 202.236,346.324 198.902,346.658 195.5,346.5C 195.5,346.167 195.5,345.833 195.5,345.5C 204.617,344.912 213.617,343.579 222.5,341.5 Z"/></g>
<g><path style="opacity:1" fill="#dc7c50" d="M 281.5,344.5 C 275.049,349.944 268.049,354.61 260.5,358.5C 260.167,357.833 259.833,357.167 259.5,356.5C 262.472,354.678 265.472,352.844 268.5,351C 264.148,350.581 263.815,349.914 267.5,349C 267.974,347.271 268.974,346.105 270.5,345.5C 273.237,344.787 275.904,344.787 278.5,345.5C 279.167,344.5 279.833,343.5 280.5,342.5C 281.298,342.957 281.631,343.624 281.5,344.5 Z"/></g>
<g><path style="opacity:1" fill="#ef4376" d="M 166.5,344.5 C 168.167,344.5 169.833,344.5 171.5,344.5C 171.5,344.833 171.5,345.167 171.5,345.5C 169.473,345.338 167.473,345.505 165.5,346C 168.742,346.283 169.076,347.117 166.5,348.5C 167.875,350.163 167.542,351.497 165.5,352.5C 168.275,356.609 171.109,360.609 174,364.5C 174.743,366.441 174.576,368.274 173.5,370C 176.286,372.021 175.953,373.521 172.5,374.5C 174.933,376.054 177.6,376.72 180.5,376.5C 180.5,376.833 180.5,377.167 180.5,377.5C 176.958,377.813 173.625,377.479 170.5,376.5C 169.432,375.566 168.099,375.232 166.5,375.5C 168.118,374.549 169.451,373.216 170.5,371.5C 170.023,370.522 169.357,369.689 168.5,369C 168.833,368.667 169.167,368.333 169.5,368C 168.584,367.626 167.75,367.126 167,366.5C 164.683,362.551 162.183,358.717 159.5,355C 158.937,352.35 158.937,349.183 159.5,345.5C 161.607,344.532 163.941,344.198 166.5,344.5 Z"/></g>
<g><path style="opacity:0.238" fill="#6a1f2e" d="M 171.5,345.5 C 171.5,345.167 171.5,344.833 171.5,344.5C 179.458,345.403 187.458,345.736 195.5,345.5C 195.5,345.833 195.5,346.167 195.5,346.5C 195.167,346.5 194.833,346.5 194.5,346.5C 192.167,346.5 189.833,346.5 187.5,346.5C 182.105,346.733 176.772,346.4 171.5,345.5 Z"/></g>
<g><path style="opacity:1" fill="#f86351" d="M 207.5,346.5 C 209.924,346.192 212.257,346.526 214.5,347.5C 214.167,348.167 213.833,348.833 213.5,349.5C 215.886,353.843 218.719,357.843 222,361.5C 222.414,361.043 222.914,360.709 223.5,360.5C 224.351,362.882 225.684,364.882 227.5,366.5C 224.924,367.883 225.258,368.717 228.5,369C 224.696,370.494 225.029,371.328 229.5,371.5C 224.808,373.579 219.808,374.912 214.5,375.5C 214.918,374.778 215.584,374.278 216.5,374C 215.359,373.259 215.359,372.425 216.5,371.5C 216.081,370.328 215.415,369.328 214.5,368.5C 213.604,369.506 212.938,369.506 212.5,368.5C 214.006,367.253 215.506,367.253 217,368.5C 217.167,368 217.333,367.5 217.5,367C 216.231,364.916 215.231,362.749 214.5,360.5C 211.708,360.548 209.875,359.215 209,356.5C 208.227,353.789 207.06,351.289 205.5,349C 206.056,347.989 206.722,347.156 207.5,346.5 Z"/></g>
<g><path style="opacity:1" fill="#b65bb1" d="M 106.5,316.5 C 112.538,320.845 118.538,325.179 124.5,329.5C 124.301,332.941 124.801,336.274 126,339.5C 128.925,346.289 132.591,352.622 137,358.5C 137.495,362.672 139.328,366.172 142.5,369C 141.552,369.483 140.552,369.649 139.5,369.5C 134.105,368.296 129.105,366.296 124.5,363.5C 124.5,362.833 124.5,362.167 124.5,361.5C 124.297,359.956 123.63,358.622 122.5,357.5C 123.544,355.232 123.711,352.899 123,350.5C 120.078,344.732 116.911,339.066 113.5,333.5C 113.709,332.914 114.043,332.414 114.5,332C 111.685,326.87 109.019,321.703 106.5,316.5 Z"/></g>
<g><path style="opacity:1" fill="#f04686" d="M 156.5,342.5 C 157.167,343.833 158.167,344.833 159.5,345.5C 158.937,349.183 158.937,352.35 159.5,355C 162.183,358.717 164.683,362.551 167,366.5C 167.75,367.126 168.584,367.626 169.5,368C 169.167,368.333 168.833,368.667 168.5,369C 169.357,369.689 170.023,370.522 170.5,371.5C 169.451,373.216 168.118,374.549 166.5,375.5C 164.621,374.659 162.621,374.325 160.5,374.5C 161.028,373.153 161.195,371.819 161,370.5C 155.92,365.916 152.754,360.249 151.5,353.5C 148.299,351.856 147.966,349.523 150.5,346.5C 150.291,345.914 149.957,345.414 149.5,345C 151.569,343.477 153.903,342.643 156.5,342.5 Z"/></g>
<g><path style="opacity:1" fill="#f84a60" d="M 171.5,345.5 C 176.772,346.4 182.105,346.733 187.5,346.5C 187.082,347.222 186.416,347.722 185.5,348C 187.053,349.097 188.386,350.43 189.5,352C 188.833,352.333 188.167,352.667 187.5,353C 189.341,354.866 191.008,356.866 192.5,359C 191.833,359.667 191.167,360.333 190.5,361C 191.808,361.824 193.308,362.324 195,362.5C 195.151,365.119 195.985,367.453 197.5,369.5C 197.023,370.478 196.357,371.311 195.5,372C 197.607,373.264 198.607,375.097 198.5,377.5C 192.488,378.67 186.488,378.67 180.5,377.5C 180.5,377.167 180.5,376.833 180.5,376.5C 183.397,376.875 186.063,376.375 188.5,375C 187.449,373.615 186.116,372.615 184.5,372C 184.5,370.333 184.5,368.667 184.5,367C 181.361,361.907 177.694,357.241 173.5,353C 172.129,350.681 171.462,348.181 171.5,345.5 Z"/></g>
<g><path style="opacity:1" fill="#f14e56" d="M 187.5,346.5 C 189.833,346.5 192.167,346.5 194.5,346.5C 194.178,348.722 194.845,350.556 196.5,352C 196.167,352.333 195.833,352.667 195.5,353C 198.434,357.466 200.767,362.299 202.5,367.5C 201.448,369.223 201.448,370.89 202.5,372.5C 201.975,373.192 201.308,373.692 200.5,374C 204.73,375.29 209.064,375.79 213.5,375.5C 208.731,376.889 203.731,377.556 198.5,377.5C 198.607,375.097 197.607,373.264 195.5,372C 196.357,371.311 197.023,370.478 197.5,369.5C 195.985,367.453 195.151,365.119 195,362.5C 193.308,362.324 191.808,361.824 190.5,361C 191.167,360.333 191.833,359.667 192.5,359C 191.008,356.866 189.341,354.866 187.5,353C 188.167,352.667 188.833,352.333 189.5,352C 188.386,350.43 187.053,349.097 185.5,348C 186.416,347.722 187.082,347.222 187.5,346.5 Z"/></g>
<g><path style="opacity:1" fill="#fa4571" d="M 171.5,345.5 C 171.462,348.181 172.129,350.681 173.5,353C 177.694,357.241 181.361,361.907 184.5,367C 184.5,368.667 184.5,370.333 184.5,372C 186.116,372.615 187.449,373.615 188.5,375C 186.063,376.375 183.397,376.875 180.5,376.5C 177.6,376.72 174.933,376.054 172.5,374.5C 175.953,373.521 176.286,372.021 173.5,370C 174.576,368.274 174.743,366.441 174,364.5C 171.109,360.609 168.275,356.609 165.5,352.5C 167.542,351.497 167.875,350.163 166.5,348.5C 169.076,347.117 168.742,346.283 165.5,346C 167.473,345.505 169.473,345.338 171.5,345.5 Z"/></g>
<g><path style="opacity:1" fill="#fd5a54" d="M 205.5,345.5 C 205.842,346.338 206.508,346.672 207.5,346.5C 206.722,347.156 206.056,347.989 205.5,349C 207.06,351.289 208.227,353.789 209,356.5C 209.875,359.215 211.708,360.548 214.5,360.5C 215.231,362.749 216.231,364.916 217.5,367C 217.333,367.5 217.167,368 217,368.5C 215.506,367.253 214.006,367.253 212.5,368.5C 212.938,369.506 213.604,369.506 214.5,368.5C 215.415,369.328 216.081,370.328 216.5,371.5C 215.359,372.425 215.359,373.259 216.5,374C 215.584,374.278 214.918,374.778 214.5,375.5C 214.167,375.5 213.833,375.5 213.5,375.5C 209.064,375.79 204.73,375.29 200.5,374C 201.308,373.692 201.975,373.192 202.5,372.5C 201.448,370.89 201.448,369.223 202.5,367.5C 200.767,362.299 198.434,357.466 195.5,353C 195.833,352.667 196.167,352.333 196.5,352C 194.845,350.556 194.178,348.722 194.5,346.5C 194.833,346.5 195.167,346.5 195.5,346.5C 198.902,346.658 202.236,346.324 205.5,345.5 Z"/></g>
<g><path style="opacity:1" fill="#e04a92" d="M 141.5,337.5 C 146.659,338.997 151.659,340.664 156.5,342.5C 153.903,342.643 151.569,343.477 149.5,345C 149.957,345.414 150.291,345.914 150.5,346.5C 147.966,349.523 148.299,351.856 151.5,353.5C 152.754,360.249 155.92,365.916 161,370.5C 161.195,371.819 161.028,373.153 160.5,374.5C 159.5,374.5 158.5,374.5 157.5,374.5C 155.708,374.634 154.042,374.301 152.5,373.5C 151.571,372.685 150.571,371.852 149.5,371C 150.5,370.667 151.5,370.333 152.5,370C 149.437,368.934 147.937,366.767 148,363.5C 141.501,355.836 137.168,347.17 135,337.5C 136.875,338.623 139.042,338.623 141.5,337.5 Z"/></g>
<g><path style="opacity:1" fill="#9a2856" d="M 157.5,374.5 C 158.5,374.5 159.5,374.5 160.5,374.5C 162.621,374.325 164.621,374.659 166.5,375.5C 168.099,375.232 169.432,375.566 170.5,376.5C 165.9,376.72 161.567,376.054 157.5,374.5 Z"/></g>
</svg>
